<svg width="25" height="24" viewBox="0 0 25 24" fill="none" xmlns="http://www.w3.org/2000/svg">
<path d="M14.1666 16.2219L13.6999 17.8284C13.2286 19.4508 12.993 20.262 12.6301 20.4675C12.3167 20.6449 11.9333 20.6449 11.6199 20.4675C11.257 20.262 11.0214 19.4508 10.5501 17.8284L10.0834 16.2219L10.0834 16.2219C9.90421 15.6049 9.81461 15.2965 9.64695 15.043C9.49856 14.8186 9.30642 14.6264 9.08205 14.478C8.82855 14.3104 8.52007 14.2208 7.90312 14.0416L7.90311 14.0416L6.2966 13.5749C4.6742 13.1036 3.863 12.868 3.6575 12.5051C3.48007 12.1917 3.48007 11.8083 3.6575 11.4949C3.863 11.132 4.6742 10.8964 6.2966 10.4251L7.90311 9.95843L7.90312 9.95843C8.52007 9.77922 8.82855 9.68961 9.08205 9.52195C9.30642 9.37356 9.49856 9.18142 9.64695 8.95705C9.81461 8.70355 9.90421 8.39507 10.0834 7.77812L10.0834 7.77811L10.5501 6.1716C11.0214 4.5492 11.257 3.738 11.6199 3.5325C11.9333 3.35507 12.3167 3.35507 12.6301 3.5325C12.993 3.738 13.2286 4.5492 13.6999 6.1716L14.1666 7.77811L14.1666 7.77812C14.3458 8.39507 14.4354 8.70355 14.603 8.95705C14.7514 9.18142 14.9436 9.37356 15.168 9.52195C15.4215 9.68961 15.7299 9.77921 16.3469 9.95843L16.3469 9.95843L17.9534 10.4251C19.5758 10.8964 20.387 11.132 20.5925 11.4949C20.7699 11.8083 20.7699 12.1917 20.5925 12.5051C20.387 12.868 19.5758 13.1036 17.9534 13.5749L16.3469 14.0416L16.3469 14.0416C15.7299 14.2208 15.4215 14.3104 15.168 14.478C14.9436 14.6264 14.7514 14.8186 14.603 15.043C14.4354 15.2965 14.3458 15.6049 14.1666 16.2219L14.1666 16.2219Z" fill="white" stroke="white" stroke-width="1.5"/>
<path d="M5.54782 5.94949L5.13629 7.20368C5.05349 7.45603 4.69651 7.45603 4.61371 7.20368L4.20218 5.94949C4.12037 5.70017 3.92483 5.50463 3.67551 5.42282L2.42132 5.01129C2.16897 4.92849 2.16897 4.57151 2.42132 4.48871L3.67551 4.07718C3.92483 3.99537 4.12037 3.79983 4.20218 3.55051L4.61371 2.29632C4.69651 2.04397 5.05349 2.04397 5.13629 2.29632L5.54782 3.55051C5.62963 3.79983 5.82517 3.99537 6.07449 4.07718L7.32868 4.48871C7.58103 4.57151 7.58103 4.92849 7.32868 5.01129L6.07449 5.42282C5.82517 5.50463 5.62963 5.70017 5.54782 5.94949Z" fill="white"/>
<path d="M20.0478 20.4495L19.6363 21.7037C19.5535 21.956 19.1965 21.956 19.1137 21.7037L18.7022 20.4495C18.6204 20.2002 18.4248 20.0046 18.1755 19.9228L16.9213 19.5113C16.669 19.4285 16.669 19.0715 16.9213 18.9887L18.1755 18.5772C18.4248 18.4954 18.6204 18.2998 18.7022 18.0505L19.1137 16.7963C19.1965 16.544 19.5535 16.544 19.6363 16.7963L20.0478 18.0505C20.1296 18.2998 20.3252 18.4954 20.5745 18.5772L21.8287 18.9887C22.081 19.0715 22.081 19.4285 21.8287 19.5113L20.5745 19.9228C20.3252 20.0046 20.1296 20.2002 20.0478 20.4495Z" fill="white"/>
</svg>
