<svg width="25" height="24" viewBox="0 0 25 24" fill="none" xmlns="http://www.w3.org/2000/svg">
<path d="M20.875 8H4.875C3.77043 8 2.875 8.89543 2.875 10V19C2.875 20.1046 3.77043 21 4.875 21H20.875C21.9796 21 22.875 20.1046 22.875 19V10C22.875 8.89543 21.9796 8 20.875 8Z" fill="#DB012F" stroke="#770000" stroke-linecap="round" stroke-linejoin="round"/>
<path d="M5.375 7.99979L10.665 5.46979L15.955 2.93979C16.0749 2.88239 16.2051 2.84948 16.3379 2.84299C16.4707 2.8365 16.6035 2.85656 16.7285 2.902C16.8534 2.94744 16.9681 3.01735 17.0657 3.10763C17.1633 3.19791 17.242 3.30675 17.297 3.42779L19.375 7.99979M6.875 9.99979V7.99979M6.875 13.9998V14.9998M6.875 18.9998V20.9998" stroke="#770000" stroke-linecap="round" stroke-linejoin="round"/>
<path d="M6.875 10.3462V8.5M6.875 14.0385V14.9615M6.875 18.6538V20.5" stroke="white" stroke-linecap="round" stroke-linejoin="round"/>
</svg>
