<svg width="160" height="48" viewBox="0 0 160 48" fill="none" xmlns="http://www.w3.org/2000/svg">
<rect x="0.5" y="0.5" width="159" height="47" rx="5.5" fill="#141414"/>
<rect x="0.5" y="0.5" width="159" height="47" rx="5.5" stroke="#262626"/>
<path d="M24 18V30M30 24L18 24" stroke="white" stroke-width="1.5" stroke-linecap="round" stroke-linejoin="round"/>
<path d="M40.28 29.5L43.654 19.42H45.39L48.764 29.5H47.469L44.312 20.148H44.704L41.575 29.5H40.28ZM41.904 27.141V25.972H47.14V27.141H41.904ZM52.9851 29.71C52.2804 29.71 51.6761 29.535 51.1721 29.185C50.6681 28.8303 50.2784 28.352 50.0031 27.75C49.7324 27.148 49.5971 26.469 49.5971 25.713C49.5971 24.957 49.7324 24.278 50.0031 23.676C50.2784 23.074 50.6681 22.6003 51.1721 22.255C51.6761 21.905 52.2781 21.73 52.9781 21.73C53.6921 21.73 54.2918 21.9027 54.7771 22.248C55.2624 22.5933 55.6288 23.067 55.8761 23.669C56.1281 24.271 56.2541 24.9523 56.2541 25.713C56.2541 26.4643 56.1281 27.1433 55.8761 27.75C55.6288 28.352 55.2624 28.8303 54.7771 29.185C54.2918 29.535 53.6944 29.71 52.9851 29.71ZM53.1391 28.569C53.6478 28.569 54.0654 28.4477 54.3921 28.205C54.7188 27.9577 54.9591 27.6193 55.1131 27.19C55.2718 26.756 55.3511 26.2637 55.3511 25.713C55.3511 25.153 55.2718 24.6607 55.1131 24.236C54.9591 23.8067 54.7211 23.473 54.3991 23.235C54.0771 22.9923 53.6688 22.871 53.1741 22.871C52.6608 22.871 52.2361 22.997 51.9001 23.249C51.5688 23.501 51.3214 23.8417 51.1581 24.271C50.9994 24.7003 50.9201 25.181 50.9201 25.713C50.9201 26.2497 51.0018 26.735 51.1651 27.169C51.3284 27.5983 51.5734 27.939 51.9001 28.191C52.2314 28.443 52.6444 28.569 53.1391 28.569ZM55.3511 29.5V23.935H55.2111V19.42H56.4641V29.5H55.3511ZM61.3933 29.71C60.6886 29.71 60.0843 29.535 59.5803 29.185C59.0763 28.8303 58.6866 28.352 58.4113 27.75C58.1406 27.148 58.0053 26.469 58.0053 25.713C58.0053 24.957 58.1406 24.278 58.4113 23.676C58.6866 23.074 59.0763 22.6003 59.5803 22.255C60.0843 21.905 60.6863 21.73 61.3863 21.73C62.1003 21.73 62.7 21.9027 63.1853 22.248C63.6706 22.5933 64.037 23.067 64.2843 23.669C64.5363 24.271 64.6623 24.9523 64.6623 25.713C64.6623 26.4643 64.5363 27.1433 64.2843 27.75C64.037 28.352 63.6706 28.8303 63.1853 29.185C62.7 29.535 62.1026 29.71 61.3933 29.71ZM61.5473 28.569C62.056 28.569 62.4736 28.4477 62.8003 28.205C63.127 27.9577 63.3673 27.6193 63.5213 27.19C63.68 26.756 63.7593 26.2637 63.7593 25.713C63.7593 25.153 63.68 24.6607 63.5213 24.236C63.3673 23.8067 63.1293 23.473 62.8073 23.235C62.4853 22.9923 62.077 22.871 61.5823 22.871C61.069 22.871 60.6443 22.997 60.3083 23.249C59.977 23.501 59.7296 23.8417 59.5663 24.271C59.4076 24.7003 59.3283 25.181 59.3283 25.713C59.3283 26.2497 59.41 26.735 59.5733 27.169C59.7366 27.5983 59.9816 27.939 60.3083 28.191C60.6396 28.443 61.0526 28.569 61.5473 28.569ZM63.7593 29.5V23.935H63.6193V19.42H64.8723V29.5H63.7593ZM72.0513 29.5V25.307L68.6562 19.42H70.1053L72.6813 23.879L75.2503 19.42H76.6993L73.3113 25.307V29.5H72.0513ZM79.7742 29.71C79.0229 29.71 78.3742 29.5397 77.8282 29.199C77.2869 28.8583 76.8692 28.387 76.5752 27.785C76.2812 27.183 76.1342 26.4923 76.1342 25.713C76.1342 24.9197 76.2836 24.2243 76.5822 23.627C76.8809 23.0297 77.3032 22.5653 77.8492 22.234C78.3952 21.898 79.0369 21.73 79.7742 21.73C80.5302 21.73 81.1812 21.9003 81.7272 22.241C82.2732 22.577 82.6909 23.046 82.9802 23.648C83.2742 24.2453 83.4212 24.9337 83.4212 25.713C83.4212 26.5017 83.2742 27.197 82.9802 27.799C82.6862 28.3963 82.2662 28.8653 81.7202 29.206C81.1742 29.542 80.5256 29.71 79.7742 29.71ZM79.7742 28.527C80.5582 28.527 81.1416 28.2657 81.5242 27.743C81.9069 27.2203 82.0982 26.5437 82.0982 25.713C82.0982 24.859 81.9046 24.18 81.5172 23.676C81.1299 23.1673 80.5489 22.913 79.7742 22.913C79.2469 22.913 78.8129 23.032 78.4722 23.27C78.1316 23.508 77.8772 23.837 77.7092 24.257C77.5412 24.677 77.4572 25.1623 77.4572 25.713C77.4572 26.5623 77.6532 27.2437 78.0452 27.757C78.4372 28.2703 79.0136 28.527 79.7742 28.527ZM87.8324 29.696C87.3471 29.696 86.9294 29.619 86.5794 29.465C86.2341 29.311 85.9471 29.1057 85.7184 28.849C85.4898 28.5923 85.3101 28.3077 85.1794 27.995C85.0488 27.6823 84.9554 27.3627 84.8994 27.036C84.8481 26.7093 84.8224 26.4037 84.8224 26.119V21.94H86.0824V25.727C86.0824 26.0817 86.1151 26.4247 86.1804 26.756C86.2458 27.0873 86.3554 27.386 86.5094 27.652C86.6681 27.918 86.8781 28.128 87.1394 28.282C87.4054 28.436 87.7368 28.513 88.1334 28.513C88.4461 28.513 88.7308 28.4593 88.9874 28.352C89.2441 28.2447 89.4634 28.086 89.6454 27.876C89.8274 27.6613 89.9674 27.3907 90.0654 27.064C90.1634 26.7373 90.2124 26.357 90.2124 25.923L91.0314 26.175C91.0314 26.903 90.8984 27.5307 90.6324 28.058C90.3711 28.5853 90.0001 28.9913 89.5194 29.276C89.0434 29.556 88.4811 29.696 87.8324 29.696ZM90.3524 29.5V27.477H90.2124V21.94H91.4654V29.5H90.3524ZM93.4253 29.5V21.94H94.5383V23.767L94.3563 23.529C94.445 23.2957 94.5593 23.081 94.6993 22.885C94.844 22.689 95.005 22.528 95.1823 22.402C95.3783 22.2433 95.6 22.122 95.8473 22.038C96.0946 21.954 96.3466 21.905 96.6033 21.891C96.86 21.8723 97.1003 21.8887 97.3243 21.94V23.109C97.063 23.039 96.776 23.0203 96.4633 23.053C96.1506 23.0857 95.8613 23.2 95.5953 23.396C95.3526 23.5687 95.1636 23.7787 95.0283 24.026C94.8976 24.2733 94.8066 24.5417 94.7553 24.831C94.704 25.1157 94.6783 25.4073 94.6783 25.706V29.5H93.4253ZM101.451 29.5V19.42H105.434C105.532 19.42 105.648 19.4247 105.784 19.434C105.919 19.4387 106.05 19.4527 106.176 19.476C106.722 19.56 107.179 19.7467 107.548 20.036C107.921 20.3253 108.201 20.6917 108.388 21.135C108.574 21.5737 108.668 22.0613 108.668 22.598C108.668 23.3773 108.465 24.054 108.059 24.628C107.653 25.1973 107.058 25.5543 106.274 25.699L105.798 25.776H102.697V29.5H101.451ZM107.45 29.5L105.462 25.398L106.694 25.02L108.878 29.5H107.45ZM102.697 24.593H105.392C105.48 24.593 105.581 24.5883 105.693 24.579C105.809 24.5697 105.919 24.5533 106.022 24.53C106.344 24.4553 106.605 24.32 106.806 24.124C107.011 23.9233 107.16 23.69 107.254 23.424C107.347 23.1533 107.394 22.878 107.394 22.598C107.394 22.318 107.347 22.045 107.254 21.779C107.16 21.5083 107.011 21.2727 106.806 21.072C106.605 20.8713 106.344 20.736 106.022 20.666C105.919 20.638 105.809 20.6217 105.693 20.617C105.581 20.6077 105.48 20.603 105.392 20.603H102.697V24.593ZM113.695 29.71C112.953 29.71 112.305 29.5467 111.749 29.22C111.199 28.8887 110.769 28.429 110.461 27.841C110.153 27.2483 109.999 26.5577 109.999 25.769C109.999 24.943 110.151 24.229 110.454 23.627C110.758 23.0203 111.18 22.5537 111.721 22.227C112.267 21.8957 112.907 21.73 113.639 21.73C114.4 21.73 115.046 21.905 115.578 22.255C116.115 22.605 116.516 23.1043 116.782 23.753C117.053 24.4017 117.17 25.174 117.132 26.07H115.872V25.622C115.858 24.6933 115.669 24.0003 115.305 23.543C114.941 23.081 114.4 22.85 113.681 22.85C112.911 22.85 112.326 23.0973 111.924 23.592C111.523 24.0867 111.322 24.796 111.322 25.72C111.322 26.6113 111.523 27.302 111.924 27.792C112.326 28.282 112.897 28.527 113.639 28.527C114.139 28.527 114.573 28.4127 114.941 28.184C115.31 27.9553 115.599 27.6263 115.809 27.197L117.006 27.61C116.712 28.2773 116.269 28.7953 115.676 29.164C115.088 29.528 114.428 29.71 113.695 29.71ZM110.902 26.07V25.069H116.488V26.07H110.902ZM120.462 29.5L117.718 21.94H118.978L121.099 27.911L123.213 21.94H124.48L121.736 29.5H120.462ZM125.886 20.603V19.315H127.132V20.603H125.886ZM125.886 29.5V21.94H127.132V29.5H125.886ZM132.508 29.71C131.766 29.71 131.117 29.5467 130.562 29.22C130.011 28.8887 129.582 28.429 129.274 27.841C128.966 27.2483 128.812 26.5577 128.812 25.769C128.812 24.943 128.964 24.229 129.267 23.627C129.57 23.0203 129.993 22.5537 130.534 22.227C131.08 21.8957 131.719 21.73 132.452 21.73C133.213 21.73 133.859 21.905 134.391 22.255C134.928 22.605 135.329 23.1043 135.595 23.753C135.866 24.4017 135.982 25.174 135.945 26.07H134.685V25.622C134.671 24.6933 134.482 24.0003 134.118 23.543C133.754 23.081 133.213 22.85 132.494 22.85C131.724 22.85 131.138 23.0973 130.737 23.592C130.336 24.0867 130.135 24.796 130.135 25.72C130.135 26.6113 130.336 27.302 130.737 27.792C131.138 28.282 131.71 28.527 132.452 28.527C132.951 28.527 133.385 28.4127 133.754 28.184C134.123 27.9553 134.412 27.6263 134.622 27.197L135.819 27.61C135.525 28.2773 135.082 28.7953 134.489 29.164C133.901 29.528 133.241 29.71 132.508 29.71ZM129.715 26.07V25.069H135.301V26.07H129.715ZM138.84 29.5L136.53 21.933L137.769 21.94L139.456 27.47L141.157 21.94H142.256L143.95 27.47L145.644 21.94H146.876L144.566 29.5H143.53L141.703 23.753L139.876 29.5H138.84Z" fill="white"/>
</svg>
