<svg width="17" height="18" viewBox="0 0 17 18" fill="none" xmlns="http://www.w3.org/2000/svg">
<path fill-rule="evenodd" clip-rule="evenodd" d="M8.4999 1.9873C6.91561 1.9873 5.6092 3.17564 5.42538 4.70861C5.16871 4.75772 4.93225 4.82869 4.70543 4.93255C4.04996 5.23268 3.49506 5.71527 3.10726 6.32246C2.87254 6.68997 2.73326 7.10108 2.62385 7.60259C2.51666 8.09394 2.43148 8.70651 2.32312 9.48583L2.31712 9.529C2.17766 10.5318 2.06865 11.3158 2.03554 11.9473C2.00192 12.5884 2.04259 13.1227 2.23569 13.6132C2.5513 14.415 3.13405 15.0835 3.88567 15.506C4.34553 15.7645 4.86977 15.8783 5.5102 15.9332C6.14095 15.9873 6.93337 15.9873 7.94703 15.9873H9.05278C10.0664 15.9873 10.8588 15.9873 11.4896 15.9332C12.13 15.8783 12.6543 15.7645 13.1141 15.506C13.8658 15.0835 14.4485 14.415 14.7641 13.6132C14.9572 13.1227 14.9979 12.5884 14.9643 11.9473C14.9312 11.3158 14.8221 10.5318 14.6827 9.52892L14.6767 9.48582C14.5683 8.7065 14.4831 8.09394 14.376 7.60259C14.2665 7.10108 14.1273 6.68997 13.8925 6.32246C13.5047 5.71527 12.9498 5.23268 12.2944 4.93255C12.0676 4.82869 11.8311 4.75772 11.5744 4.70861C11.3906 3.17564 10.0842 1.9873 8.4999 1.9873ZM7.94094 4.59196C7.35285 4.59195 6.85784 4.59195 6.434 4.60845C6.64869 3.66681 7.49213 2.96405 8.4999 2.96405C9.50767 2.96405 10.3511 3.66681 10.5658 4.60845C10.142 4.59195 9.64695 4.59195 9.05886 4.59196H7.94094ZM6.23796 7.99081C6.04702 7.80009 5.73743 7.80009 5.54649 7.99081C5.35554 8.18153 5.35554 8.49075 5.54649 8.68147L5.80726 8.94194C7.29438 10.4273 9.70549 10.4273 11.1926 8.94194L11.4534 8.68147C11.6443 8.49075 11.6443 8.18153 11.4534 7.99081C11.2624 7.80009 10.9529 7.80009 10.7619 7.99081L10.5011 8.25128C9.39591 9.35521 7.60397 9.35521 6.49873 8.25128L6.23796 7.99081Z" fill="white"/>
</svg>
