<svg width="20" height="21" viewBox="0 0 20 21" fill="none" xmlns="http://www.w3.org/2000/svg">
<g clip-path="url(#clip0_2071_261)">
<path d="M19.7614 10.6873C19.7614 9.86792 19.6949 9.26998 19.551 8.6499H10.1943V12.3482H15.6865C15.5758 13.2673 14.9778 14.6514 13.6491 15.5815L13.6304 15.7053L16.5888 17.9972L16.7938 18.0176C18.6762 16.2791 19.7614 13.7213 19.7614 10.6873Z" fill="#4285F4"/>
<path d="M10.1947 20.4312C12.8854 20.4312 15.1442 19.5453 16.7941 18.0173L13.6494 15.5812C12.8079 16.1681 11.6784 16.5777 10.1947 16.5777C7.55932 16.5777 5.3226 14.8393 4.52527 12.4365L4.4084 12.4464L1.33222 14.8271L1.29199 14.939C2.93077 18.1944 6.29695 20.4312 10.1947 20.4312Z" fill="#34A853"/>
<path d="M4.52575 12.4368C4.31537 11.8167 4.19361 11.1523 4.19361 10.4658C4.19361 9.77927 4.31537 9.11492 4.51468 8.49484L4.50911 8.36278L1.39438 5.94385L1.29247 5.99232C0.617049 7.34324 0.229492 8.86026 0.229492 10.4658C0.229492 12.0714 0.617049 13.5884 1.29247 14.9393L4.52575 12.4368Z" fill="#FBBC05"/>
<path d="M10.1947 4.35336C12.066 4.35336 13.3283 5.16168 14.048 5.83717L16.8605 3.09107C15.1332 1.4855 12.8854 0.5 10.1947 0.5C6.29695 0.5 2.93077 2.73672 1.29199 5.99214L4.51421 8.49466C5.3226 6.09183 7.55932 4.35336 10.1947 4.35336Z" fill="#EB4335"/>
</g>
<defs>
<clipPath id="clip0_2071_261">
<rect width="20" height="20" fill="white" transform="translate(0 0.5)"/>
</clipPath>
</defs>
</svg>
