<svg width="21" height="20" viewBox="0 0 21 20" fill="none" xmlns="http://www.w3.org/2000/svg">
<path d="M5.13257 9.25C5.93892 9.25 6.66648 8.80416 7.1641 8.16967C7.93726 7.18384 8.91169 6.3634 10.0255 5.77021C10.7477 5.38563 11.3743 4.81428 11.6781 4.05464C11.8908 3.5231 12 2.95587 12 2.38338V1.75C12 1.33579 12.3358 1 12.75 1C13.9926 1 15 2.00736 15 3.25C15 4.40163 14.7404 5.49263 14.2766 6.46771C14.011 7.02604 14.3836 7.75 15.0019 7.75M15.0019 7.75H18.1277C19.1544 7.75 20.0733 8.44399 20.182 9.46486C20.2269 9.88708 20.25 10.3158 20.25 10.75C20.25 13.5976 19.2581 16.2136 17.601 18.2712C17.2134 18.7525 16.6142 19 15.9962 19H11.9802C11.4966 19 11.0161 18.922 10.5572 18.7691L7.44278 17.7309C6.98393 17.578 6.50342 17.5 6.01975 17.5H4.40421M15.0019 7.75H12.75M4.40421 17.5C4.48702 17.7046 4.57713 17.9054 4.67423 18.1022C4.87137 18.5017 4.5962 19 4.15067 19H3.24289C2.35418 19 1.52991 18.482 1.27056 17.632C0.932083 16.5226 0.75 15.3451 0.75 14.125C0.75 12.5725 1.04481 11.0889 1.58149 9.72711C1.88655 8.95303 2.66733 8.5 3.49936 8.5H4.55212C5.02404 8.5 5.2973 9.05591 5.0523 9.45925C4.22588 10.8198 3.75 12.4168 3.75 14.125C3.75 15.3185 3.98232 16.4578 4.40421 17.5Z" stroke="white" stroke-linecap="round" stroke-linejoin="round"/>
</svg>
