<svg width="25" height="25" viewBox="0 0 25 25" fill="none" xmlns="http://www.w3.org/2000/svg">
<path d="M12.498 1.80078C9.48997 1.80078 7.53997 3.81978 5.23397 4.55578C4.29597 4.85578 3.82697 5.00478 3.63697 5.21578C3.44697 5.42578 3.39197 5.73478 3.28097 6.35078C2.09097 12.9468 4.69097 19.0448 10.891 21.4188C11.556 21.6738 11.889 21.8008 12.501 21.8008C13.113 21.8008 13.447 21.6728 14.113 21.4178C20.312 19.0448 22.909 12.9468 21.719 6.35078C21.608 5.73478 21.552 5.42578 21.362 5.21478C21.172 5.00378 20.704 4.85478 19.766 4.55578C17.459 3.81978 15.506 1.80078 12.498 1.80078Z" stroke="white" stroke-linecap="round" stroke-linejoin="round"/>
<path d="M10.7501 9.75926C10.7501 9.69926 10.7581 9.35327 10.7601 8.91927C10.7601 8.52127 10.7261 8.13926 10.9161 7.78926C11.6261 6.37526 13.6661 6.51926 14.1701 7.95926C14.2571 8.19626 14.2631 8.57127 14.2601 8.91927C14.2571 9.36227 14.2661 9.75926 14.2661 9.75926M10.8371 10.1803C9.75714 10.1803 9.21714 10.9603 9.09714 11.4403C8.97714 11.9203 8.97714 13.6603 9.04914 14.3803C9.28914 15.2803 9.88914 15.6523 10.4771 15.7723C11.0171 15.8203 13.2971 15.8023 13.9571 15.8023C14.9171 15.8203 15.6371 15.4603 15.9371 14.3803C15.9971 14.0203 16.0571 12.0403 15.9071 11.4403C15.5891 10.4803 14.7971 10.1803 14.1971 10.1803H10.8371Z" stroke="white" stroke-linecap="round" stroke-linejoin="round"/>
</svg>
