<svg width="47" height="46" viewBox="0 0 47 46" fill="none" xmlns="http://www.w3.org/2000/svg">
<path d="M46.4232 43.5156C42.8173 37.2266 37.1565 32.8138 30.5788 30.9423C33.7767 29.3016 36.334 26.6216 37.8382 23.3346C39.3424 20.0475 39.706 16.3449 38.8702 12.8238C38.0344 9.30269 36.0479 6.16831 33.2312 3.92605C30.4145 1.6838 26.9317 0.464355 23.3443 0.464355C19.7569 0.464355 16.274 1.6838 13.4573 3.92605C10.6406 6.16831 8.65416 9.30269 7.81836 12.8238C6.98256 16.3449 7.34608 20.0475 8.8503 23.3346C10.3545 26.6216 12.9118 29.3016 16.1097 30.9423C9.53204 32.8115 3.87122 37.2243 0.265351 43.5156C0.166339 43.6728 0.0998553 43.8485 0.0699012 44.0324C0.039947 44.2162 0.0471413 44.4042 0.0910505 44.5851C0.13496 44.766 0.214676 44.9361 0.325405 45.0852C0.436134 45.2342 0.575587 45.3591 0.735375 45.4523C0.895162 45.5455 1.07198 45.6051 1.2552 45.6276C1.43841 45.6501 1.62423 45.6349 1.80149 45.583C1.97874 45.5311 2.14376 45.4435 2.28662 45.3256C2.42948 45.2077 2.54722 45.0618 2.63277 44.8967C7.01409 37.2566 14.755 32.6964 23.3443 32.6964C31.9336 32.6964 39.6744 37.2566 44.0558 44.8967C44.1413 45.0618 44.259 45.2077 44.4019 45.3256C44.5448 45.4435 44.7098 45.5311 44.887 45.583C45.0643 45.6349 45.2501 45.6501 45.4333 45.6276C45.6165 45.6051 45.7934 45.5455 45.9531 45.4523C46.1129 45.3591 46.2524 45.2342 46.3631 45.0852C46.4738 44.9361 46.5536 44.766 46.5975 44.5851C46.6414 44.4042 46.6486 44.2162 46.6186 44.0324C46.5887 43.8485 46.5222 43.6728 46.4232 43.5156ZM10.1159 16.5828C10.1159 13.9421 10.8917 11.3608 12.3453 9.16517C13.7988 6.96956 15.8648 5.25828 18.282 4.24776C20.6992 3.23723 23.3589 2.97283 25.925 3.48799C28.491 4.00315 30.8481 5.27474 32.6981 7.14196C34.5481 9.00917 35.808 11.3881 36.3184 13.978C36.8288 16.5679 36.5669 19.2524 35.5657 21.6921C34.5644 24.1317 32.8689 26.2169 30.6935 27.684C28.5181 29.151 25.9606 29.9341 23.3443 29.9341C19.8372 29.9298 16.475 28.5218 13.9951 26.0188C11.5152 23.5159 10.1201 20.1224 10.1159 16.5828Z" fill="white"/>
</svg>
