<svg width="25" height="25" viewBox="0 0 25 25" fill="none" xmlns="http://www.w3.org/2000/svg">
<path fill-rule="evenodd" clip-rule="evenodd" d="M12.5 2.40039C10.2367 2.40039 8.37043 4.09802 8.10782 6.28797C7.74115 6.35812 7.40335 6.45952 7.07933 6.60789C6.14294 7.03665 5.35022 7.72606 4.79622 8.59347C4.46091 9.11848 4.26194 9.70578 4.10564 10.4222C3.95251 11.1242 3.83083 11.9993 3.67602 13.1126L3.66745 13.1742C3.46823 14.6069 3.3125 15.7268 3.26519 16.6289C3.21717 17.5449 3.27527 18.3081 3.55113 19.0089C4.002 20.1542 4.8345 21.1092 5.90824 21.7128C6.56519 22.0821 7.3141 22.2446 8.22899 22.3231C9.13008 22.4004 10.2621 22.4004 11.7102 22.4004H13.2898C14.7379 22.4004 15.8699 22.4004 16.771 22.3231C17.6859 22.2446 18.4348 22.0821 19.0918 21.7128C20.1655 21.1092 20.998 20.1542 21.4489 19.0089C21.7247 18.3081 21.7828 17.5449 21.7348 16.6289C21.6875 15.7268 21.5318 14.6068 21.3325 13.1741L21.324 13.1125C21.1692 11.9992 21.0475 11.1242 20.8944 10.4222C20.7381 9.70578 20.5391 9.11848 20.2038 8.59347C19.6498 7.72606 18.8571 7.03665 17.9207 6.60789C17.5966 6.45952 17.2589 6.35812 16.8922 6.28797C16.6296 4.09802 14.7633 2.40039 12.5 2.40039ZM11.7015 6.12132C10.8614 6.12131 10.1542 6.12131 9.54871 6.14489C9.85541 4.79968 11.0603 3.79574 12.5 3.79574C13.9397 3.79574 15.1446 4.79968 15.4513 6.14489C14.8458 6.12131 14.1386 6.12131 13.2985 6.12132H11.7015ZM9.26865 10.9768C8.99588 10.7044 8.55361 10.7044 8.28083 10.9768C8.00806 11.2493 8.00806 11.691 8.28083 11.9635L8.65336 12.3356C10.7778 14.4576 14.2223 14.4576 16.3467 12.3356L16.7193 11.9635C16.992 11.691 16.992 11.2493 16.7193 10.9768C16.4465 10.7044 16.0042 10.7044 15.7314 10.9768L15.3589 11.3489C13.78 12.926 11.2201 12.926 9.64118 11.3489L9.26865 10.9768Z" stroke="white" stroke-linecap="round"/>
</svg>
