<svg width="20" height="20" viewBox="0 0 20 20" fill="none" xmlns="http://www.w3.org/2000/svg">
<path d="M9.56724 2.91569C9.72736 2.53071 10.2727 2.53071 10.4329 2.91569L12.2045 7.17524C12.272 7.33753 12.4246 7.44843 12.5998 7.46247L17.1984 7.83113C17.614 7.86445 17.7825 8.38313 17.4659 8.65438L13.9623 11.6556C13.8288 11.7699 13.7705 11.9494 13.8113 12.1203L14.8817 16.6077C14.9784 17.0133 14.5372 17.3339 14.1814 17.1165L10.2444 14.7118C10.0944 14.6202 9.90571 14.6202 9.75571 14.7118L5.81872 17.1165C5.46289 17.3339 5.02168 17.0133 5.11842 16.6077L6.18883 12.1203C6.22961 11.9494 6.17131 11.7699 6.03782 11.6556L2.53422 8.65438C2.21756 8.38313 2.38609 7.86446 2.8017 7.83114L7.40024 7.46247C7.57546 7.44843 7.72809 7.33753 7.79559 7.17524L9.56724 2.91569Z" stroke="#999999" stroke-linecap="round" stroke-linejoin="round"/>
</svg>
