<svg width="93" height="28" viewBox="0 0 93 28" fill="none" xmlns="http://www.w3.org/2000/svg">
<rect x="1" y="0.5" width="91" height="27" rx="13.5" fill="#141414"/>
<rect x="1" y="0.5" width="91" height="27" rx="13.5" stroke="#262626"/>
<path d="M26.603 8.16796H24.0515L23.3225 7.43896H19.6775L18.9485 8.16796H16.397V9.62596H26.603M17.126 19.103C17.126 19.4897 17.2796 19.8605 17.553 20.1339C17.8264 20.4074 18.1973 20.561 18.584 20.561H24.416C24.8027 20.561 25.1735 20.4074 25.4469 20.1339C25.7204 19.8605 25.874 19.4897 25.874 19.103V10.355H17.126V19.103Z" fill="#999999"/>
<path d="M31.443 18.5V9.86H34.857C34.941 9.86 35.041 9.864 35.157 9.872C35.273 9.876 35.385 9.888 35.493 9.908C35.961 9.98 36.353 10.14 36.669 10.388C36.989 10.636 37.229 10.95 37.389 11.33C37.549 11.706 37.629 12.124 37.629 12.584C37.629 13.252 37.455 13.832 37.107 14.324C36.759 14.812 36.249 15.118 35.577 15.242L35.169 15.308H32.511V18.5H31.443ZM36.585 18.5L34.881 14.984L35.937 14.66L37.809 18.5H36.585ZM32.511 14.294H34.821C34.897 14.294 34.983 14.29 35.079 14.282C35.179 14.274 35.273 14.26 35.361 14.24C35.637 14.176 35.861 14.06 36.033 13.892C36.209 13.72 36.337 13.52 36.417 13.292C36.497 13.06 36.537 12.824 36.537 12.584C36.537 12.344 36.497 12.11 36.417 11.882C36.337 11.65 36.209 11.448 36.033 11.276C35.861 11.104 35.637 10.988 35.361 10.928C35.273 10.904 35.179 10.89 35.079 10.886C34.983 10.878 34.897 10.874 34.821 10.874H32.511V14.294ZM41.9385 18.68C41.3025 18.68 40.7465 18.54 40.2705 18.26C39.7985 17.976 39.4305 17.582 39.1665 17.078C38.9025 16.57 38.7705 15.978 38.7705 15.302C38.7705 14.594 38.9005 13.982 39.1605 13.466C39.4205 12.946 39.7825 12.546 40.2465 12.266C40.7145 11.982 41.2625 11.84 41.8905 11.84C42.5425 11.84 43.0965 11.99 43.5525 12.29C44.0125 12.59 44.3565 13.018 44.5845 13.574C44.8165 14.13 44.9165 14.792 44.8845 15.56H43.8045V15.176C43.7925 14.38 43.6305 13.786 43.3185 13.394C43.0065 12.998 42.5425 12.8 41.9265 12.8C41.2665 12.8 40.7645 13.012 40.4205 13.436C40.0765 13.86 39.9045 14.468 39.9045 15.26C39.9045 16.024 40.0765 16.616 40.4205 17.036C40.7645 17.456 41.2545 17.666 41.8905 17.666C42.3185 17.666 42.6905 17.568 43.0065 17.372C43.3225 17.176 43.5705 16.894 43.7505 16.526L44.7765 16.88C44.5245 17.452 44.1445 17.896 43.6365 18.212C43.1325 18.524 42.5665 18.68 41.9385 18.68ZM39.5445 15.56V14.702H44.3325V15.56H39.5445ZM53.7906 18.5L53.7966 14.354C53.7966 13.87 53.6666 13.492 53.4066 13.22C53.1506 12.944 52.8166 12.806 52.4046 12.806C52.1646 12.806 51.9366 12.862 51.7206 12.974C51.5046 13.082 51.3286 13.254 51.1926 13.49C51.0566 13.722 50.9886 14.02 50.9886 14.384L50.4246 14.156C50.4166 13.696 50.5106 13.294 50.7066 12.95C50.9066 12.602 51.1786 12.332 51.5226 12.14C51.8666 11.948 52.2546 11.852 52.6866 11.852C53.3626 11.852 53.8946 12.058 54.2826 12.47C54.6706 12.878 54.8646 13.428 54.8646 14.12L54.8586 18.5H53.7906ZM46.0386 18.5V12.02H46.9926V13.754H47.1126V18.5H46.0386ZM49.9206 18.5L49.9266 14.396C49.9266 13.9 49.7986 13.512 49.5426 13.232C49.2866 12.948 48.9466 12.806 48.5226 12.806C48.1026 12.806 47.7626 12.95 47.5026 13.238C47.2426 13.526 47.1126 13.908 47.1126 14.384L46.5486 14.048C46.5486 13.628 46.6486 13.252 46.8486 12.92C47.0486 12.588 47.3206 12.328 47.6646 12.14C48.0086 11.948 48.3986 11.852 48.8346 11.852C49.2706 11.852 49.6506 11.944 49.9746 12.128C50.2986 12.312 50.5486 12.576 50.7246 12.92C50.9006 13.26 50.9886 13.666 50.9886 14.138L50.9826 18.5H49.9206ZM59.1288 18.68C58.4848 18.68 57.9288 18.534 57.4608 18.242C56.9968 17.95 56.6388 17.546 56.3868 17.03C56.1348 16.514 56.0088 15.922 56.0088 15.254C56.0088 14.574 56.1368 13.978 56.3928 13.466C56.6488 12.954 57.0108 12.556 57.4788 12.272C57.9468 11.984 58.4968 11.84 59.1288 11.84C59.7768 11.84 60.3348 11.986 60.8028 12.278C61.2708 12.566 61.6288 12.968 61.8768 13.484C62.1288 13.996 62.2548 14.586 62.2548 15.254C62.2548 15.93 62.1288 16.526 61.8768 17.042C61.6248 17.554 61.2648 17.956 60.7968 18.248C60.3288 18.536 59.7728 18.68 59.1288 18.68ZM59.1288 17.666C59.8008 17.666 60.3008 17.442 60.6288 16.994C60.9568 16.546 61.1208 15.966 61.1208 15.254C61.1208 14.522 60.9548 13.94 60.6228 13.508C60.2908 13.072 59.7928 12.854 59.1288 12.854C58.6768 12.854 58.3048 12.956 58.0128 13.16C57.7208 13.364 57.5028 13.646 57.3588 14.006C57.2148 14.366 57.1428 14.782 57.1428 15.254C57.1428 15.982 57.3108 16.566 57.6468 17.006C57.9828 17.446 58.4768 17.666 59.1288 17.666ZM65.0935 18.5L62.7415 12.02H63.8215L65.6395 17.138L67.4515 12.02H68.5375L66.1855 18.5H65.0935ZM72.1963 18.68C71.5603 18.68 71.0043 18.54 70.5283 18.26C70.0563 17.976 69.6883 17.582 69.4243 17.078C69.1603 16.57 69.0283 15.978 69.0283 15.302C69.0283 14.594 69.1583 13.982 69.4183 13.466C69.6783 12.946 70.0403 12.546 70.5043 12.266C70.9723 11.982 71.5203 11.84 72.1483 11.84C72.8003 11.84 73.3543 11.99 73.8103 12.29C74.2703 12.59 74.6143 13.018 74.8423 13.574C75.0743 14.13 75.1743 14.792 75.1423 15.56H74.0623V15.176C74.0503 14.38 73.8883 13.786 73.5763 13.394C73.2643 12.998 72.8003 12.8 72.1843 12.8C71.5243 12.8 71.0223 13.012 70.6783 13.436C70.3343 13.86 70.1623 14.468 70.1623 15.26C70.1623 16.024 70.3343 16.616 70.6783 17.036C71.0223 17.456 71.5123 17.666 72.1483 17.666C72.5763 17.666 72.9483 17.568 73.2643 17.372C73.5803 17.176 73.8283 16.894 74.0083 16.526L75.0343 16.88C74.7823 17.452 74.4023 17.896 73.8943 18.212C73.3903 18.524 72.8243 18.68 72.1963 18.68ZM69.8023 15.56V14.702H74.5903V15.56H69.8023Z" fill="#999999"/>
</svg>
