<svg width="24" height="24" viewBox="0 0 24 24" fill="none" xmlns="http://www.w3.org/2000/svg">
<path fill-rule="evenodd" clip-rule="evenodd" d="M10.7215 2C6.2278 2 2.58496 5.88019 2.58496 10.6667C2.58496 15.4531 6.2278 19.3333 10.7215 19.3333C15.2151 19.3333 18.858 15.4531 18.858 10.6667C18.858 5.88019 15.2151 2 10.7215 2ZM3.83673 10.6667C3.83673 6.61657 6.91914 3.33333 10.7215 3.33333C14.5238 3.33333 17.6062 6.61657 17.6062 10.6667C17.6062 14.7167 14.5238 18 10.7215 18C6.91914 18 3.83673 14.7167 3.83673 10.6667Z" fill="white"/>
<path d="M17.8402 17.3064C17.5958 17.0461 17.1995 17.0461 16.9551 17.3064C16.7106 17.5668 16.7106 17.9889 16.9551 18.2492L20.293 21.8047C20.5375 22.0651 20.9337 22.0651 21.1782 21.8047C21.4226 21.5444 21.4226 21.1223 21.1782 20.8619L17.8402 17.3064Z" fill="white"/>
</svg>
