<svg width="29" height="34" viewBox="0 0 29 34" fill="none" xmlns="http://www.w3.org/2000/svg">
<path d="M0.5 9C0.5 4.85786 3.85786 1.5 8 1.5H21C25.1421 1.5 28.5 4.85786 28.5 9V26C28.5 30.1421 25.1421 33.5 21 33.5H8C3.85787 33.5 0.5 30.1421 0.5 26V9Z" fill="#0F0F0F" stroke="#262626"/>
<g opacity="0.8">
<path fill-rule="evenodd" clip-rule="evenodd" d="M13.4666 10.4873C10.116 10.4873 7.3999 13.2034 7.3999 16.554C7.3999 19.9045 10.116 22.6206 13.4666 22.6206C16.8171 22.6206 19.5332 19.9045 19.5332 16.554C19.5332 13.2034 16.8171 10.4873 13.4666 10.4873ZM8.33323 16.554C8.33323 13.7189 10.6315 11.4206 13.4666 11.4206C16.3016 11.4206 18.5999 13.7189 18.5999 16.554C18.5999 19.389 16.3016 21.6873 13.4666 21.6873C10.6315 21.6873 8.33323 19.389 8.33323 16.554Z" fill="white"/>
<path d="M18.7744 21.2018C18.5921 21.0196 18.2966 21.0196 18.1144 21.2018C17.9321 21.384 17.9321 21.6795 18.1144 21.8618L20.6032 24.3506C20.7854 24.5329 21.0809 24.5329 21.2632 24.3506C21.4454 24.1684 21.4454 23.8729 21.2632 23.6907L18.7744 21.2018Z" fill="white"/>
</g>
</svg>
