<svg width="17" height="18" viewBox="0 0 17 18" fill="none" xmlns="http://www.w3.org/2000/svg">
<path d="M9.93007 11.9431L9.6034 13.0677C9.27351 14.2034 9.10856 14.7712 8.85452 14.915C8.63519 15.0392 8.36677 15.0392 8.14744 14.915C7.8934 14.7712 7.72845 14.2034 7.39855 13.0677L7.07188 11.9431C6.94643 11.5112 6.8837 11.2953 6.76634 11.1179C6.66247 10.9608 6.52797 10.8263 6.37091 10.7224C6.19346 10.6051 5.97752 10.5423 5.54566 10.4169L4.4211 10.0902C3.28542 9.76032 2.71758 9.59537 2.57373 9.34133C2.44953 9.122 2.44953 8.85358 2.57373 8.63425C2.71758 8.38021 3.28542 8.21526 4.4211 7.88536L5.54566 7.5587C5.97753 7.43324 6.19346 7.37052 6.37091 7.25316C6.52797 7.14928 6.66247 7.01479 6.76634 6.85773C6.8837 6.68028 6.94643 6.46434 7.07188 6.03247L7.39855 4.90791C7.72845 3.77223 7.8934 3.20439 8.14744 3.06054C8.36677 2.93634 8.63519 2.93634 8.85452 3.06054C9.10856 3.20439 9.27351 3.77223 9.60341 4.90792L9.93007 6.03247C10.0555 6.46434 10.1183 6.68028 10.2356 6.85773C10.3395 7.01479 10.474 7.14928 10.631 7.25316C10.8085 7.37052 11.0244 7.43324 11.4563 7.5587L12.5809 7.88536C13.7165 8.21526 14.2844 8.38021 14.4282 8.63425C14.5524 8.85358 14.5524 9.122 14.4282 9.34133C14.2844 9.59537 13.7165 9.76032 12.5809 10.0902L11.4563 10.4169C11.0244 10.5423 10.8085 10.6051 10.631 10.7224C10.474 10.8263 10.3395 10.9608 10.2356 11.1179C10.1183 11.2953 10.0555 11.5112 9.93007 11.9431Z" fill="#DB012F" stroke="#DB012F" stroke-width="1.05"/>
<path d="M3.89637 4.75234L3.6083 5.63027C3.55033 5.80692 3.30045 5.80691 3.24249 5.63027L2.95441 4.75234C2.89715 4.57781 2.76027 4.44094 2.58575 4.38367L1.70782 4.0956C1.53117 4.03764 1.53117 3.78775 1.70782 3.72979L2.58575 3.44172C2.76027 3.38445 2.89715 3.24758 2.95441 3.07305L3.24249 2.19512C3.30045 2.01848 3.55033 2.01847 3.6083 2.19512L3.89637 3.07305C3.95363 3.24758 4.09051 3.38445 4.26504 3.44172L5.14297 3.72979C5.31961 3.78775 5.31961 4.03764 5.14296 4.0956L4.26504 4.38367C4.09051 4.44094 3.95363 4.57781 3.89637 4.75234Z" fill="#DB012F"/>
<path d="M14.0468 14.9022L13.7587 15.7802C13.7007 15.9568 13.4508 15.9568 13.3929 15.7802L13.1048 14.9022C13.0475 14.7277 12.9107 14.5908 12.7361 14.5336L11.8582 14.2455C11.6816 14.1875 11.6816 13.9377 11.8582 13.8797L12.7361 13.5916C12.9107 13.5344 13.0475 13.3975 13.1048 13.223L13.3929 12.345C13.4508 12.1684 13.7007 12.1684 13.7587 12.345L14.0468 13.223C14.104 13.3975 14.2409 13.5344 14.4154 13.5916L15.2934 13.8797C15.47 13.9377 15.47 14.1875 15.2934 14.2455L14.4154 14.5336C14.2409 14.5908 14.104 14.7277 14.0468 14.9022Z" fill="#DB012F"/>
</svg>
