<svg width="25" height="25" viewBox="0 0 25 25" fill="none" xmlns="http://www.w3.org/2000/svg">
<path d="M20.5 8.40039H4.5C3.39543 8.40039 2.5 9.29582 2.5 10.4004V19.4004C2.5 20.505 3.39543 21.4004 4.5 21.4004H20.5C21.6046 21.4004 22.5 20.505 22.5 19.4004V10.4004C22.5 9.29582 21.6046 8.40039 20.5 8.40039Z" fill="black" stroke="white" stroke-linecap="round" stroke-linejoin="round"/>
<path d="M5 8.39969L10.29 5.86969L15.58 3.33969C15.6999 3.28229 15.8301 3.24938 15.9629 3.24289C16.0957 3.2364 16.2285 3.25647 16.3535 3.30191C16.4784 3.34735 16.5931 3.41725 16.6907 3.50753C16.7883 3.59781 16.867 3.70666 16.922 3.82769L19 8.39969M6.5 10.3997V8.39969M6.5 14.3997V15.3997M6.5 19.3997V21.3997" stroke="white" stroke-linecap="round" stroke-linejoin="round"/>
<path d="M6.5 10.7465V8.90039M6.5 14.4389V15.3619M6.5 19.0542V20.9004" stroke="white" stroke-linecap="round" stroke-linejoin="round"/>
</svg>
