<svg width="719" height="652" viewBox="0 0 719 652" fill="none" xmlns="http://www.w3.org/2000/svg">
<rect x="1.43861" y="1.43812" width="716.123" height="645.123" rx="20.3014" fill="#1A1A1A"/>
<rect x="1.43861" y="1.43812" width="716.123" height="645.123" rx="20.3014" stroke="#262626" stroke-width="2.13699"/>
<circle cx="359.794" cy="338.013" r="180.575" fill="url(#paint0_linear_76_8460)" stroke="#262626" stroke-width="2.13699"/>
<rect x="1.06849" y="364.068" width="716.863" height="286.863" rx="20.3014" fill="url(#paint1_linear_76_8460)" stroke="#262626" stroke-width="2.13699"/>
<path d="M294.12 411.893C293.998 334.939 293.95 258.097 294.067 181.255C294.079 173.578 297.181 167.142 302.411 162.112C307.157 157.548 312.547 155.822 318.728 155.855C346.901 156.005 375.075 155.819 403.248 155.984C411.652 156.033 417.834 161.066 422.104 169.121C424.784 174.178 425.618 179.799 425.614 185.706C425.569 258.9 425.59 332.094 425.548 405.288C425.546 407.321 425.024 409.354 424.741 411.58C424.614 416.038 422.808 419.586 420.963 423.298C415.636 430.238 409.399 434.28 401.104 434.225C372.929 434.038 344.753 434.146 316.577 434.162C312.152 434.165 308.209 432.496 304.613 429.721C302.868 428.374 301.305 426.719 299.595 425.058C297.277 421.399 295.277 417.756 294.778 413.298C294.728 412.848 294.426 412.435 294.12 411.893ZM299.963 340.032C299.963 362.403 299.873 384.775 300.003 407.146C300.065 417.84 306.704 425.258 315.817 425.314C344.841 425.494 373.866 425.407 402.891 425.365C411.491 425.352 418.865 417.736 418.838 407.145C418.733 365.159 418.795 323.171 418.795 281.184C418.795 248.114 418.851 215.042 418.758 181.972C418.731 172.1 411.819 164.881 403.94 164.807C374.492 164.532 345.04 164.664 315.59 164.765C313.457 164.772 311.15 165.324 309.227 166.358C303.173 169.611 300.01 175.363 300 182.945C299.93 235.145 299.963 287.345 299.963 340.032Z" fill="#1F7629"/>
<path d="M299.963 339.788C299.963 287.345 299.93 235.145 300 182.945C300.01 175.363 303.173 169.611 309.227 166.358C311.15 165.324 313.457 164.772 315.59 164.765C345.04 164.664 374.492 164.532 403.94 164.807C411.819 164.881 418.731 172.1 418.758 181.972C418.85 215.042 418.795 248.113 418.795 281.184C418.795 323.171 418.733 365.158 418.838 407.145C418.865 417.736 411.491 425.352 402.891 425.364C373.866 425.407 344.841 425.494 315.817 425.314C306.704 425.258 300.065 417.84 300.003 407.146C299.873 384.775 299.963 362.403 299.963 339.788ZM370.41 243.437C375.066 239.844 378.089 235.011 378.925 228.582C380.571 215.927 372.296 204.933 361.578 204.277C347.448 203.413 337.388 220.609 344.272 235.351C349.449 246.436 361.533 249.502 370.41 243.437ZM341.479 335.393C346.372 335.393 351.266 335.418 356.159 335.383C359.122 335.362 360.45 333.912 360.433 330.862C360.417 327.876 359.197 326.661 356.158 326.658C347.719 326.65 339.28 326.655 330.841 326.655C326.018 326.655 321.196 326.671 316.374 326.65C314.505 326.642 313.32 327.742 312.564 329.567C311.8 331.409 312.751 332.9 313.812 333.811C314.851 334.703 316.347 335.303 317.651 335.326C325.45 335.462 333.252 335.393 341.479 335.393ZM321.04 353.904C319.621 353.904 318.201 353.888 316.782 353.908C314.565 353.939 312.298 356.297 312.374 358.469C312.443 360.459 314.386 362.176 316.605 362.177C330.019 362.182 343.434 362.183 356.848 362.177C359.768 362.175 360.54 361.258 360.432 358.002C360.342 355.259 358.964 353.91 356.173 353.908C344.604 353.898 333.035 353.904 321.04 353.904ZM358.438 301.025C360.623 299.993 360.8 297.827 360.326 295.739C359.841 293.605 358.269 293.033 356.341 293.044C343.156 293.114 329.97 293.071 316.785 293.106C315.983 293.108 315.067 293.247 314.404 293.702C312.807 294.796 312.406 296.67 312.889 298.568C313.399 300.577 314.83 301.374 316.659 301.371C328.001 301.352 339.343 301.371 350.685 301.354C353.161 301.35 355.636 301.25 358.438 301.025ZM312.342 314.62C313.154 317.335 314.711 318.479 317.319 318.432C325.261 318.289 333.207 318.389 341.151 318.367C341.917 318.365 342.734 318.337 343.439 318.045C345.17 317.329 346.131 315.178 345.764 313.158C345.359 310.934 343.972 309.658 341.768 309.651C333.682 309.625 325.596 309.638 317.51 309.64C314.09 309.641 313.386 310.271 312.342 314.62ZM399.796 309.639C392.428 309.639 385.061 309.614 377.694 309.655C375.193 309.669 373.579 311.519 373.628 314.106C373.676 316.582 375.264 318.354 377.649 318.364C386.149 318.402 394.65 318.391 403.151 318.368C404.79 318.364 406.542 316.534 406.808 314.684C407.105 312.626 406.082 310.611 404.19 310.064C402.914 309.695 401.541 309.765 399.796 309.639ZM392.582 362.18C396.198 362.179 399.815 362.158 403.431 362.189C404.833 362.201 405.883 361.791 406.413 360.105C407.376 357.037 405.574 353.93 402.654 353.917C394.217 353.881 385.779 353.888 377.341 353.917C375.203 353.924 373.648 355.797 373.629 358.222C373.61 360.618 375.01 362.166 377.266 362.174C382.229 362.19 387.193 362.18 392.582 362.18ZM313.392 277.63C311.909 282.253 313.186 284.342 317.497 284.343C325.514 284.344 333.531 284.346 341.548 284.341C344.437 284.339 345.558 283.144 345.538 280.125C345.52 277.307 344.339 276.072 341.616 276.07C333.457 276.063 325.297 276.016 317.14 276.124C315.962 276.139 314.792 276.919 313.392 277.63ZM403.8 284.329C406.212 283.191 407.049 281.607 406.369 278.845C405.879 276.851 404.575 276.018 402.67 276.035C394.312 276.11 385.953 276.058 377.594 276.074C375.287 276.078 373.543 277.964 373.644 280.328C373.743 282.665 375.381 284.455 377.5 284.413C386.139 284.242 394.783 284.34 403.8 284.329ZM358.513 345.623C373.631 345.623 388.749 345.624 403.867 345.621C404.505 345.621 405.161 345.687 405.774 345.537C406.106 345.456 406.364 344.983 406.656 344.687C406.385 344.369 406.162 343.919 405.833 343.769C405.461 343.599 404.995 343.682 404.57 343.682C374.476 343.68 344.383 343.678 314.289 343.692C313.652 343.692 313.014 343.864 312.377 343.955C312.351 344.274 312.325 344.592 312.299 344.91C313.296 345.148 314.292 345.589 315.289 345.592C329.555 345.637 343.821 345.623 358.513 345.623ZM392.609 326.655C391.828 326.656 391.047 326.641 390.267 326.659C388.031 326.71 386.64 328.123 386.423 330.548C386.224 332.784 387.307 334.79 389.464 334.949C394.117 335.292 398.794 335.209 403.461 335.291C403.595 335.293 403.729 335.189 403.864 335.141C405.898 334.414 407.068 332.564 406.821 330.462C406.573 328.345 404.834 326.671 402.822 326.66C399.557 326.644 396.293 326.655 392.609 326.655ZM390.989 293.08C388.216 293.114 386.443 294.687 386.41 297.144C386.375 299.767 388.128 301.359 391.063 301.361C394.965 301.363 398.867 301.373 402.769 301.357C405.262 301.346 406.429 300.023 406.438 297.261C406.447 294.298 405.459 293.107 402.882 293.088C399.051 293.061 395.22 293.081 390.989 293.08Z" fill="white"/>
<path d="M370.266 243.507C361.533 249.503 349.449 246.436 344.273 235.351C337.388 220.609 347.448 203.413 361.578 204.277C372.296 204.933 380.572 215.928 378.925 228.582C378.089 235.011 375.066 239.844 370.266 243.507ZM353.712 229.997C354.625 231.01 355.511 232.056 356.456 233.027C357.451 234.047 358.44 234.05 359.43 232.911C362.705 229.141 365.996 225.388 369.301 221.653C370.39 220.421 370.947 218.984 369.717 217.681C368.534 216.428 367.522 217.611 366.644 218.61C364.147 221.452 361.614 224.254 359.164 227.147C358.255 228.221 357.584 228.258 356.727 227.134C355.942 226.102 355.176 224.895 354.161 224.297C353.338 223.812 352.158 224.116 351.137 224.07C351.203 225.075 351.026 226.222 351.396 227.048C351.862 228.085 352.777 228.859 353.712 229.997Z" fill="#E99746"/>
<path d="M341.266 335.394C333.253 335.394 325.451 335.462 317.652 335.326C316.347 335.304 314.852 334.703 313.812 333.811C312.752 332.901 311.801 331.41 312.565 329.567C313.321 327.743 314.506 326.642 316.374 326.65C321.196 326.671 326.019 326.656 330.841 326.656C339.281 326.655 347.72 326.651 356.159 326.659C359.198 326.661 360.418 327.876 360.434 330.862C360.451 333.912 359.122 335.362 356.159 335.383C351.266 335.419 346.373 335.393 341.266 335.394Z" fill="#4CCD59"/>
<rect width="58" height="58" transform="translate(331.96 194.466)" fill="white"/>
<path d="M360.96 199.299C374.324 199.299 385.126 210.101 385.126 223.465C385.126 236.83 374.324 247.632 360.96 247.632C347.595 247.632 336.793 236.83 336.793 223.465C336.793 210.101 347.595 199.299 360.96 199.299ZM369.635 211.382L360.96 220.058L352.284 211.382L348.876 214.79L357.552 223.465L348.876 232.141L352.284 235.549L360.96 226.873L369.635 235.549L373.043 232.141L364.367 223.465L373.043 214.79L369.635 211.382Z" fill="#4CCD59"/>
<path d="M321.253 353.903C333.035 353.903 344.604 353.898 356.173 353.908C358.964 353.91 360.342 355.259 360.433 358.001C360.541 361.257 359.768 362.175 356.849 362.176C343.434 362.183 330.02 362.181 316.605 362.177C314.386 362.176 312.443 360.459 312.374 358.468C312.298 356.297 314.566 353.939 316.782 353.907C318.202 353.888 319.621 353.903 321.253 353.903Z" fill="#4CCD59"/>
<path d="M358.275 301.11C355.637 301.25 353.161 301.35 350.685 301.354C339.343 301.371 328.001 301.352 316.659 301.371C314.83 301.374 313.4 300.577 312.889 298.569C312.406 296.67 312.808 294.797 314.404 293.702C315.068 293.247 315.984 293.108 316.786 293.106C329.971 293.071 343.156 293.115 356.341 293.044C358.27 293.034 359.842 293.605 360.326 295.74C360.8 297.827 360.623 299.994 358.275 301.11Z" fill="#4CCD59"/>
<path d="M312.337 314.432C313.387 310.271 314.09 309.641 317.51 309.64C325.596 309.638 333.682 309.625 341.768 309.651C343.972 309.657 345.36 310.934 345.764 313.157C346.131 315.177 345.17 317.329 343.44 318.045C342.734 318.337 341.918 318.365 341.151 318.367C333.207 318.388 325.262 318.289 317.32 318.432C314.712 318.479 313.155 317.335 312.337 314.432Z" fill="#4CCD59"/>
<path d="M400.004 309.639C401.541 309.765 402.915 309.695 404.191 310.064C406.083 310.611 407.106 312.626 406.809 314.684C406.542 316.534 404.79 318.364 403.151 318.368C394.651 318.391 386.15 318.402 377.649 318.364C375.265 318.354 373.676 316.582 373.629 314.106C373.58 311.519 375.194 309.669 377.694 309.655C385.062 309.614 392.429 309.639 400.004 309.639Z" fill="#4CCD59"/>
<path d="M392.37 362.18C387.193 362.18 382.23 362.191 377.266 362.174C375.011 362.167 373.61 360.619 373.629 358.222C373.648 355.798 375.203 353.924 377.341 353.917C385.779 353.889 394.217 353.881 402.655 353.918C405.574 353.93 407.377 357.037 406.413 360.106C405.884 361.792 404.834 362.201 403.431 362.189C399.815 362.159 396.199 362.18 392.37 362.18Z" fill="#4CCD59"/>
<path d="M313.505 277.487C314.792 276.919 315.962 276.139 317.14 276.124C325.297 276.016 333.457 276.063 341.616 276.07C344.339 276.072 345.52 277.307 345.538 280.125C345.558 283.144 344.437 284.339 341.548 284.341C333.531 284.346 325.514 284.344 317.497 284.343C313.186 284.342 311.909 282.253 313.505 277.487Z" fill="#4CCD59"/>
<path d="M403.613 284.334C394.783 284.34 386.139 284.242 377.5 284.413C375.381 284.455 373.743 282.665 373.644 280.328C373.543 277.965 375.287 276.078 377.594 276.074C385.953 276.058 394.312 276.11 402.671 276.035C404.575 276.018 405.879 276.851 406.37 278.845C407.05 281.608 406.212 283.191 403.613 284.334Z" fill="#4CCD59"/>
<path d="M358.3 345.623C343.821 345.623 329.555 345.638 315.289 345.593C314.292 345.59 313.296 345.148 312.299 344.911C312.325 344.592 312.351 344.274 312.377 343.956C313.014 343.864 313.652 343.692 314.289 343.692C344.383 343.679 374.476 343.68 404.57 343.683C404.995 343.683 405.461 343.599 405.833 343.769C406.162 343.919 406.385 344.37 406.655 344.687C406.364 344.984 406.106 345.457 405.774 345.538C405.161 345.688 404.505 345.621 403.867 345.621C388.749 345.624 373.631 345.623 358.3 345.623Z" fill="#FFF2E6"/>
<path d="M392.819 326.655C396.293 326.656 399.558 326.644 402.823 326.661C404.834 326.671 406.573 328.345 406.822 330.462C407.069 332.565 405.899 334.415 403.864 335.141C403.729 335.19 403.595 335.293 403.462 335.291C398.794 335.209 394.117 335.292 389.464 334.949C387.307 334.79 386.224 332.784 386.424 330.548C386.64 328.124 388.031 326.71 390.267 326.659C391.048 326.642 391.829 326.656 392.819 326.655Z" fill="#4CCD59"/>
<path d="M391.189 293.081C395.22 293.081 399.051 293.061 402.882 293.089C405.46 293.108 406.447 294.299 406.438 297.262C406.43 300.024 405.262 301.347 402.769 301.357C398.867 301.374 394.965 301.364 391.063 301.361C388.128 301.36 386.375 299.768 386.411 297.144C386.444 294.687 388.216 293.114 391.189 293.081Z" fill="#4CCD59"/>
<ellipse cx="359.795" cy="465.164" rx="64.1096" ry="11.7534" fill="#BAF4CB"/>
<path d="M217.707 119.698V96.4255H226.434C228.222 96.4255 229.722 96.7588 230.934 97.4255C232.154 98.0922 233.074 99.0088 233.695 100.176C234.324 101.335 234.638 102.653 234.638 104.13C234.638 105.622 234.324 106.948 233.695 108.107C233.066 109.266 232.138 110.179 230.911 110.846C229.684 111.505 228.172 111.835 226.377 111.835H220.593V108.369H225.809C226.854 108.369 227.71 108.187 228.377 107.823C229.044 107.46 229.536 106.96 229.854 106.323C230.18 105.687 230.343 104.956 230.343 104.13C230.343 103.304 230.18 102.577 229.854 101.948C229.536 101.319 229.04 100.831 228.366 100.482C227.699 100.126 226.839 99.9482 225.786 99.9482H221.922V119.698H217.707ZM242.189 120.051C241.083 120.051 240.086 119.854 239.2 119.46C238.321 119.058 237.624 118.467 237.109 117.687C236.602 116.907 236.348 115.944 236.348 114.801C236.348 113.816 236.53 113.001 236.893 112.357C237.257 111.713 237.753 111.198 238.382 110.812C239.011 110.426 239.719 110.134 240.507 109.937C241.302 109.732 242.124 109.585 242.973 109.494C243.996 109.388 244.825 109.293 245.461 109.21C246.098 109.119 246.56 108.982 246.848 108.801C247.143 108.611 247.291 108.319 247.291 107.926V107.857C247.291 107.001 247.037 106.338 246.53 105.869C246.022 105.399 245.291 105.164 244.336 105.164C243.329 105.164 242.53 105.384 241.939 105.823C241.355 106.263 240.961 106.782 240.757 107.38L236.916 106.835C237.219 105.774 237.719 104.888 238.416 104.176C239.113 103.456 239.965 102.918 240.973 102.562C241.98 102.198 243.094 102.016 244.314 102.016C245.155 102.016 245.992 102.115 246.825 102.312C247.658 102.509 248.42 102.835 249.109 103.289C249.799 103.736 250.352 104.346 250.768 105.119C251.193 105.891 251.405 106.857 251.405 108.016V119.698H247.45V117.301H247.314C247.064 117.785 246.711 118.24 246.257 118.664C245.81 119.081 245.246 119.418 244.564 119.676C243.89 119.926 243.098 120.051 242.189 120.051ZM243.257 117.028C244.083 117.028 244.799 116.865 245.405 116.539C246.011 116.206 246.477 115.766 246.802 115.221C247.136 114.676 247.302 114.081 247.302 113.437V111.38C247.174 111.486 246.954 111.585 246.643 111.676C246.34 111.766 245.999 111.846 245.621 111.914C245.242 111.982 244.867 112.043 244.496 112.096C244.124 112.149 243.802 112.194 243.53 112.232C242.916 112.316 242.367 112.452 241.882 112.641C241.397 112.831 241.015 113.096 240.734 113.437C240.454 113.77 240.314 114.202 240.314 114.732C240.314 115.49 240.59 116.062 241.143 116.448C241.696 116.835 242.401 117.028 243.257 117.028ZM256.833 126.244C256.272 126.244 255.753 126.198 255.276 126.107C254.806 126.024 254.431 125.926 254.151 125.812L255.106 122.607C255.704 122.782 256.238 122.865 256.708 122.857C257.178 122.85 257.59 122.702 257.946 122.414C258.31 122.134 258.617 121.664 258.867 121.005L259.219 120.062L252.89 102.244H257.253L261.276 115.426H261.458L265.492 102.244H269.867L262.878 121.812C262.553 122.736 262.121 123.528 261.583 124.187C261.045 124.854 260.386 125.361 259.606 125.71C258.833 126.066 257.909 126.244 256.833 126.244ZM272.074 119.698V102.244H276.005V105.21H276.21C276.574 104.21 277.176 103.429 278.017 102.869C278.858 102.301 279.861 102.016 281.028 102.016C282.21 102.016 283.206 102.304 284.017 102.88C284.835 103.448 285.411 104.225 285.744 105.21H285.926C286.312 104.24 286.964 103.467 287.88 102.891C288.805 102.308 289.899 102.016 291.164 102.016C292.77 102.016 294.081 102.524 295.096 103.539C296.111 104.554 296.619 106.035 296.619 107.982V119.698H292.494V108.619C292.494 107.535 292.206 106.744 291.63 106.244C291.055 105.736 290.35 105.482 289.517 105.482C288.524 105.482 287.748 105.793 287.187 106.414C286.634 107.028 286.358 107.827 286.358 108.812V119.698H282.324V108.448C282.324 107.547 282.051 106.827 281.505 106.289C280.967 105.751 280.263 105.482 279.392 105.482C278.801 105.482 278.263 105.634 277.778 105.937C277.293 106.232 276.907 106.653 276.619 107.198C276.331 107.736 276.187 108.365 276.187 109.085V119.698H272.074ZM307.88 120.039C306.13 120.039 304.618 119.676 303.345 118.948C302.08 118.213 301.107 117.176 300.425 115.835C299.743 114.486 299.402 112.899 299.402 111.073C299.402 109.278 299.743 107.702 300.425 106.346C301.114 104.982 302.077 103.922 303.311 103.164C304.546 102.399 305.997 102.016 307.664 102.016C308.739 102.016 309.755 102.191 310.709 102.539C311.671 102.88 312.52 103.41 313.255 104.13C313.997 104.85 314.58 105.766 315.005 106.88C315.429 107.986 315.641 109.304 315.641 110.835V112.096H301.334V109.323H311.698C311.69 108.535 311.52 107.835 311.186 107.221C310.853 106.6 310.387 106.111 309.789 105.755C309.198 105.399 308.508 105.221 307.72 105.221C306.88 105.221 306.141 105.426 305.505 105.835C304.868 106.236 304.372 106.766 304.016 107.426C303.667 108.077 303.489 108.793 303.482 109.573V111.994C303.482 113.009 303.667 113.88 304.039 114.607C304.41 115.327 304.929 115.88 305.595 116.266C306.262 116.645 307.042 116.835 307.936 116.835C308.535 116.835 309.077 116.751 309.561 116.585C310.046 116.41 310.467 116.157 310.823 115.823C311.179 115.49 311.448 115.077 311.63 114.585L315.47 115.016C315.228 116.032 314.766 116.918 314.084 117.676C313.41 118.426 312.546 119.009 311.493 119.426C310.44 119.835 309.236 120.039 307.88 120.039ZM322.595 109.471V119.698H318.481V102.244H322.413V105.21H322.617C323.019 104.232 323.659 103.456 324.538 102.88C325.424 102.304 326.519 102.016 327.822 102.016C329.026 102.016 330.076 102.274 330.97 102.789C331.871 103.304 332.568 104.051 333.061 105.028C333.561 106.005 333.807 107.191 333.799 108.585V119.698H329.686V109.221C329.686 108.054 329.383 107.141 328.776 106.482C328.178 105.823 327.348 105.494 326.288 105.494C325.568 105.494 324.928 105.653 324.367 105.971C323.814 106.282 323.379 106.732 323.061 107.323C322.75 107.914 322.595 108.63 322.595 109.471ZM346.057 102.244V105.426H336.023V102.244H346.057ZM338.5 98.0619H342.614V114.448C342.614 115.001 342.697 115.426 342.864 115.721C343.038 116.009 343.265 116.206 343.546 116.312C343.826 116.418 344.136 116.471 344.477 116.471C344.735 116.471 344.97 116.452 345.182 116.414C345.402 116.376 345.568 116.342 345.682 116.312L346.375 119.528C346.155 119.604 345.841 119.687 345.432 119.778C345.03 119.869 344.538 119.922 343.955 119.937C342.924 119.967 341.996 119.812 341.171 119.471C340.345 119.122 339.69 118.585 339.205 117.857C338.727 117.13 338.493 116.221 338.5 115.13V98.0619ZM368.984 102.823C368.878 101.831 368.431 101.058 367.643 100.505C366.863 99.952 365.848 99.6755 364.598 99.6755C363.719 99.6755 362.965 99.8081 362.337 100.073C361.708 100.338 361.227 100.698 360.893 101.153C360.56 101.607 360.39 102.126 360.382 102.71C360.382 103.194 360.492 103.615 360.712 103.971C360.939 104.327 361.246 104.63 361.632 104.88C362.018 105.122 362.446 105.327 362.916 105.494C363.386 105.66 363.859 105.801 364.337 105.914L366.518 106.46C367.397 106.664 368.242 106.941 369.053 107.289C369.871 107.638 370.602 108.077 371.246 108.607C371.897 109.138 372.412 109.778 372.791 110.528C373.17 111.278 373.359 112.157 373.359 113.164C373.359 114.528 373.011 115.729 372.314 116.766C371.617 117.797 370.609 118.604 369.291 119.187C367.981 119.763 366.393 120.051 364.53 120.051C362.719 120.051 361.147 119.77 359.814 119.21C358.488 118.649 357.45 117.831 356.7 116.755C355.958 115.679 355.556 114.369 355.496 112.823H359.643C359.704 113.634 359.954 114.308 360.393 114.846C360.833 115.384 361.405 115.785 362.109 116.051C362.821 116.316 363.617 116.448 364.496 116.448C365.412 116.448 366.215 116.312 366.905 116.039C367.602 115.759 368.147 115.372 368.541 114.88C368.935 114.38 369.136 113.797 369.143 113.13C369.136 112.524 368.958 112.024 368.609 111.63C368.261 111.229 367.772 110.895 367.143 110.63C366.522 110.357 365.795 110.115 364.962 109.903L362.314 109.221C360.397 108.729 358.882 107.982 357.768 106.982C356.662 105.975 356.109 104.638 356.109 102.971C356.109 101.6 356.481 100.399 357.223 99.3687C357.973 98.3384 358.992 97.5392 360.28 96.971C361.568 96.3952 363.026 96.1073 364.655 96.1073C366.306 96.1073 367.753 96.3952 368.996 96.971C370.246 97.5392 371.227 98.3308 371.939 99.346C372.651 100.354 373.018 101.513 373.041 102.823H368.984ZM387.421 112.357V102.244H391.535V119.698H387.546V116.596H387.364C386.97 117.573 386.323 118.372 385.421 118.994C384.527 119.615 383.425 119.926 382.114 119.926C380.97 119.926 379.959 119.672 379.08 119.164C378.209 118.649 377.527 117.903 377.035 116.926C376.542 115.941 376.296 114.751 376.296 113.357V102.244H380.41V112.721C380.41 113.827 380.713 114.706 381.319 115.357C381.925 116.009 382.72 116.335 383.705 116.335C384.311 116.335 384.898 116.187 385.466 115.891C386.035 115.596 386.501 115.157 386.864 114.573C387.235 113.982 387.421 113.244 387.421 112.357ZM402.738 120.039C400.996 120.039 399.5 119.657 398.25 118.891C397.007 118.126 396.049 117.069 395.375 115.721C394.708 114.365 394.375 112.804 394.375 111.039C394.375 109.266 394.716 107.702 395.398 106.346C396.079 104.982 397.041 103.922 398.284 103.164C399.534 102.399 401.011 102.016 402.716 102.016C404.132 102.016 405.386 102.278 406.477 102.801C407.576 103.316 408.451 104.047 409.102 104.994C409.754 105.933 410.125 107.032 410.216 108.289H406.284C406.125 107.448 405.746 106.747 405.148 106.187C404.557 105.619 403.765 105.335 402.773 105.335C401.932 105.335 401.193 105.562 400.557 106.016C399.92 106.463 399.424 107.107 399.068 107.948C398.719 108.789 398.545 109.797 398.545 110.971C398.545 112.16 398.719 113.183 399.068 114.039C399.416 114.888 399.905 115.543 400.534 116.005C401.17 116.46 401.916 116.687 402.773 116.687C403.379 116.687 403.92 116.573 404.398 116.346C404.882 116.111 405.288 115.774 405.613 115.335C405.939 114.895 406.163 114.361 406.284 113.732H410.216C410.117 114.967 409.754 116.062 409.125 117.016C408.496 117.963 407.64 118.706 406.557 119.244C405.473 119.774 404.201 120.039 402.738 120.039ZM420.567 120.039C418.825 120.039 417.329 119.657 416.079 118.891C414.836 118.126 413.878 117.069 413.204 115.721C412.537 114.365 412.204 112.804 412.204 111.039C412.204 109.266 412.544 107.702 413.226 106.346C413.908 104.982 414.87 103.922 416.113 103.164C417.363 102.399 418.84 102.016 420.544 102.016C421.961 102.016 423.215 102.278 424.306 102.801C425.404 103.316 426.279 104.047 426.931 104.994C427.582 105.933 427.954 107.032 428.044 108.289H424.113C423.954 107.448 423.575 106.747 422.976 106.187C422.385 105.619 421.594 105.335 420.601 105.335C419.76 105.335 419.022 105.562 418.385 106.016C417.749 106.463 417.253 107.107 416.897 107.948C416.548 108.789 416.374 109.797 416.374 110.971C416.374 112.16 416.548 113.183 416.897 114.039C417.245 114.888 417.734 115.543 418.363 116.005C418.999 116.46 419.745 116.687 420.601 116.687C421.207 116.687 421.749 116.573 422.226 116.346C422.711 116.111 423.116 115.774 423.442 115.335C423.768 114.895 423.991 114.361 424.113 113.732H428.044C427.946 114.967 427.582 116.062 426.954 117.016C426.325 117.963 425.469 118.706 424.385 119.244C423.302 119.774 422.029 120.039 420.567 120.039ZM438.51 120.039C436.76 120.039 435.248 119.676 433.975 118.948C432.71 118.213 431.737 117.176 431.055 115.835C430.373 114.486 430.032 112.899 430.032 111.073C430.032 109.278 430.373 107.702 431.055 106.346C431.744 104.982 432.707 103.922 433.941 103.164C435.176 102.399 436.627 102.016 438.294 102.016C439.369 102.016 440.385 102.191 441.339 102.539C442.301 102.88 443.15 103.41 443.885 104.13C444.627 104.85 445.21 105.766 445.635 106.88C446.059 107.986 446.271 109.304 446.271 110.835V112.096H431.964V109.323H442.328C442.32 108.535 442.15 107.835 441.816 107.221C441.483 106.6 441.017 106.111 440.419 105.755C439.828 105.399 439.138 105.221 438.35 105.221C437.51 105.221 436.771 105.426 436.135 105.835C435.498 106.236 435.002 106.766 434.646 107.426C434.297 108.077 434.119 108.793 434.112 109.573V111.994C434.112 113.009 434.297 113.88 434.669 114.607C435.04 115.327 435.559 115.88 436.225 116.266C436.892 116.645 437.672 116.835 438.566 116.835C439.165 116.835 439.707 116.751 440.191 116.585C440.676 116.41 441.097 116.157 441.453 115.823C441.809 115.49 442.078 115.077 442.26 114.585L446.1 115.016C445.858 116.032 445.396 116.918 444.714 117.676C444.04 118.426 443.176 119.009 442.123 119.426C441.07 119.835 439.866 120.039 438.51 120.039ZM462.906 106.857L459.156 107.266C459.05 106.888 458.865 106.532 458.6 106.198C458.342 105.865 457.994 105.596 457.554 105.391C457.115 105.187 456.577 105.085 455.941 105.085C455.084 105.085 454.365 105.27 453.781 105.641C453.206 106.013 452.922 106.494 452.929 107.085C452.922 107.592 453.107 108.005 453.486 108.323C453.872 108.641 454.509 108.903 455.395 109.107L458.372 109.744C460.024 110.1 461.251 110.664 462.054 111.437C462.865 112.21 463.274 113.221 463.281 114.471C463.274 115.569 462.952 116.539 462.316 117.38C461.687 118.213 460.812 118.865 459.691 119.335C458.569 119.804 457.281 120.039 455.827 120.039C453.691 120.039 451.971 119.592 450.668 118.698C449.365 117.797 448.588 116.543 448.338 114.937L452.35 114.551C452.531 115.338 452.918 115.933 453.509 116.335C454.1 116.736 454.869 116.937 455.816 116.937C456.793 116.937 457.577 116.736 458.168 116.335C458.766 115.933 459.066 115.437 459.066 114.846C459.066 114.346 458.872 113.933 458.486 113.607C458.107 113.282 457.516 113.032 456.713 112.857L453.736 112.232C452.062 111.884 450.823 111.297 450.02 110.471C449.217 109.638 448.819 108.585 448.827 107.312C448.819 106.236 449.111 105.304 449.702 104.516C450.3 103.721 451.13 103.107 452.191 102.676C453.259 102.236 454.49 102.016 455.884 102.016C457.929 102.016 459.539 102.452 460.713 103.323C461.895 104.194 462.626 105.372 462.906 106.857ZM474.874 102.244V105.426H464.556V102.244H474.874ZM467.136 119.698V100.596C467.136 99.4217 467.378 98.4445 467.863 97.6642C468.355 96.8838 469.015 96.3005 469.84 95.9142C470.666 95.5278 471.583 95.3346 472.59 95.3346C473.302 95.3346 473.935 95.3914 474.488 95.5051C475.041 95.6187 475.45 95.721 475.715 95.8119L474.897 98.9937C474.723 98.9407 474.503 98.8876 474.238 98.8346C473.973 98.774 473.677 98.7437 473.352 98.7437C472.587 98.7437 472.045 98.9293 471.727 99.3005C471.416 99.6642 471.261 100.187 471.261 100.869V119.698H467.136ZM488.581 112.357V102.244H492.695V119.698H488.706V116.596H488.524C488.13 117.573 487.483 118.372 486.581 118.994C485.687 119.615 484.585 119.926 483.274 119.926C482.13 119.926 481.119 119.672 480.24 119.164C479.369 118.649 478.687 117.903 478.195 116.926C477.702 115.941 477.456 114.751 477.456 113.357V102.244H481.57V112.721C481.57 113.827 481.873 114.706 482.479 115.357C483.085 116.009 483.88 116.335 484.865 116.335C485.471 116.335 486.058 116.187 486.626 115.891C487.195 115.596 487.661 115.157 488.024 114.573C488.395 113.982 488.581 113.244 488.581 112.357ZM500.398 96.4255V119.698H496.285V96.4255H500.398Z" fill="#1F7629"/>
<defs>
<linearGradient id="paint0_linear_76_8460" x1="359.794" y1="156.37" x2="359.794" y2="519.657" gradientUnits="userSpaceOnUse">
<stop stop-color="#1A1A1A"/>
<stop offset="1" stop-color="#028D02"/>
</linearGradient>
<linearGradient id="paint1_linear_76_8460" x1="359.5" y1="363" x2="359.5" y2="652" gradientUnits="userSpaceOnUse">
<stop stop-color="#1A1A1A"/>
<stop offset="1" stop-color="#028D02"/>
</linearGradient>
</defs>
</svg>
