<svg width="17" height="18" viewBox="0 0 17 18" fill="none" xmlns="http://www.w3.org/2000/svg">
<path d="M14.101 6.18701H2.90098C2.12778 6.18701 1.50098 6.81381 1.50098 7.58701V13.887C1.50098 14.6602 2.12778 15.287 2.90098 15.287H14.101C14.8742 15.287 15.501 14.6602 15.501 13.887V7.58701C15.501 6.81381 14.8742 6.18701 14.101 6.18701Z" fill="#DB012F" stroke="#770000" stroke-width="0.7" stroke-linecap="round" stroke-linejoin="round"/>
<path d="M3.25098 6.18677L6.95398 4.41577L10.657 2.64477C10.7409 2.60458 10.8321 2.58155 10.925 2.57701C11.018 2.57246 11.1109 2.58651 11.1984 2.61832C11.2859 2.65013 11.3661 2.69906 11.4345 2.76226C11.5028 2.82545 11.5578 2.90164 11.5964 2.98637L13.051 6.18677M4.30098 7.58677V6.18677M4.30098 10.3868V11.0868M4.30098 13.8868V15.2868" stroke="#770000" stroke-width="0.7" stroke-linecap="round" stroke-linejoin="round"/>
<path d="M4.30078 7.82942V6.53711M4.30078 10.414V11.0602M4.30078 13.6448V14.9371" stroke="white" stroke-width="0.7" stroke-linecap="round" stroke-linejoin="round"/>
</svg>
