<svg width="18" height="17" viewBox="0 0 18 17" fill="none" xmlns="http://www.w3.org/2000/svg">
<path fill-rule="evenodd" clip-rule="evenodd" d="M9.05135 0.454102C4.50952 0.454102 0.827637 4.13598 0.827637 8.67782C0.827637 13.2196 4.50952 16.9015 9.05135 16.9015C13.5932 16.9015 17.2751 13.2196 17.2751 8.67782C17.2751 4.13598 13.5932 0.454102 9.05135 0.454102ZM9.68394 3.61707C9.68394 3.2677 9.40072 2.98448 9.05135 2.98448C8.70198 2.98448 8.41876 3.2677 8.41876 3.61707V8.67782C8.41876 9.02719 8.70198 9.31041 9.05135 9.31041H12.8469C13.1963 9.31041 13.4795 9.02719 13.4795 8.67782C13.4795 8.32844 13.1963 8.04522 12.8469 8.04522H9.68394V3.61707Z" fill="#999999"/>
</svg>
