<svg width="25" height="24" viewBox="0 0 25 24" fill="none" xmlns="http://www.w3.org/2000/svg">
<path d="M15.0005 12C15.0005 13.3807 13.8812 14.5 12.5005 14.5C11.1198 14.5 10.0005 13.3807 10.0005 12C10.0005 10.6193 11.1198 9.5 12.5005 9.5C13.8812 9.5 15.0005 10.6193 15.0005 12ZM2.29834 11.6045C3.71969 7.33165 7.7502 4.25 12.501 4.25C17.2496 4.25 21.2786 7.32878 22.7017 11.5986C22.7879 11.8571 22.7879 12.1369 22.7019 12.3955C21.2806 16.6684 17.2501 19.75 12.4993 19.75C7.75065 19.75 3.72169 16.6712 2.29857 12.4014C2.2124 12.1429 2.21232 11.8631 2.29834 11.6045ZM12.5005 17.75C15.6761 17.75 18.2505 15.1756 18.2505 12C18.2505 8.82436 15.6761 6.25 12.5005 6.25C9.32485 6.25 6.75049 8.82436 6.75049 12C6.75049 15.1756 9.32485 17.75 12.5005 17.75Z" stroke="white"/>
</svg>
